<svg xmlns="http://www.w3.org/2000/svg" xmlns:xlink="http://www.w3.org/1999/xlink" width="200" height="250" viewBox="0 0 200 250"><rect width="100%" height="100%" fill="#DDDDDD"/><path d="M43.54 134.39L36.69 134.39L36.69 116.62L42.70 116.62Q45.84 116.62 47.60 117.84Q49.35 119.06 49.35 121.49L49.35 121.49Q49.35 122.72 48.70 123.69Q48.05 124.66 46.80 125.15L46.80 125.15Q48.40 125.49 49.20 126.62Q50 127.74 50 129.22L50 129.22Q50 131.77 48.32 133.08Q46.63 134.39 43.54 134.39L43.54 134.39ZM43.81 126.53L40.26 126.53L40.26 131.66L43.54 131.66Q44.96 131.66 45.70 131.04Q46.45 130.43 46.45 129.22L46.45 129.22Q46.45 127.91 45.81 127.22Q45.18 126.53 43.81 126.53L43.81 126.53ZM40.26 119.37L40.26 124.07L42.82 124.07Q44.25 124.07 45.02 123.48Q45.79 122.89 45.79 121.77L45.79 121.77Q45.79 120.54 45.01 119.95Q44.24 119.37 42.70 119.37L42.70 119.37L40.26 119.37ZM51.89 127.92L51.89 127.67Q51.89 124.71 53.54 122.83Q55.19 120.94 58.11 120.94L58.11 120.94Q61.04 120.94 62.70 122.82Q64.36 124.70 64.36 127.67L64.36 127.67L64.36 127.92Q64.36 130.90 62.70 132.78Q61.05 134.65 58.13 134.65L58.13 134.65Q55.20 134.65 53.55 132.78Q51.89 130.90 51.89 127.92L51.89 127.92ZM55.44 127.67L55.44 127.92Q55.44 129.73 56.08 130.82Q56.71 131.92 58.13 131.92L58.13 131.92Q59.51 131.92 60.15 130.82Q60.79 129.72 60.79 127.92L60.79 127.92L60.79 127.67Q60.79 125.91 60.14 124.80Q59.50 123.69 58.11 123.69L58.11 123.69Q56.73 123.69 56.09 124.80Q55.44 125.92 55.44 127.67L55.44 127.67ZM66.00 127.92L66.00 127.67Q66.00 124.71 67.65 122.83Q69.30 120.94 72.22 120.94L72.22 120.94Q75.15 120.94 76.81 122.82Q78.47 124.70 78.47 127.67L78.47 127.67L78.47 127.92Q78.47 130.90 76.81 132.78Q75.16 134.65 72.24 134.65L72.24 134.65Q69.31 134.65 67.66 132.78Q66.00 130.90 66.00 127.92L66.00 127.92ZM69.56 127.67L69.56 127.92Q69.56 129.73 70.19 130.82Q70.83 131.92 72.24 131.92L72.24 131.92Q73.62 131.92 74.26 130.82Q74.90 129.72 74.90 127.92L74.90 127.92L74.90 127.67Q74.90 125.91 74.26 124.80Q73.61 123.69 72.22 123.69L72.22 123.69Q70.84 123.69 70.20 124.80Q69.56 125.92 69.56 127.67L69.56 127.67ZM88.85 134.39L85.21 128.86L84.23 128.86L84.23 134.39L80.66 134.39L80.66 115.35L84.23 115.35L84.23 126.15L85.11 126.15L88.17 121.19L92.30 121.19L88.07 127.17L92.94 134.39L88.85 134.39ZM110.53 128.35L113.99 128.35L114.01 128.42Q114.06 131.29 112.26 132.97Q110.46 134.65 107.26 134.65L107.26 134.65Q104.05 134.65 102.05 132.59Q100.05 130.52 100.05 127.28L100.05 127.28L100.05 123.75Q100.05 120.51 102.00 118.44Q103.96 116.36 107.08 116.36L107.08 116.36Q110.38 116.36 112.23 118.05Q114.09 119.74 114.04 122.66L114.04 122.66L114.01 122.74L110.55 122.74Q110.55 120.98 109.70 120.04Q108.86 119.11 107.08 119.11L107.08 119.11Q105.48 119.11 104.54 120.41Q103.60 121.71 103.60 123.72L103.60 123.72L103.60 127.28Q103.60 129.32 104.59 130.62Q105.58 131.92 107.26 131.92L107.26 131.92Q108.94 131.92 109.74 131.02Q110.53 130.12 110.53 128.35L110.53 128.35ZM115.71 127.92L115.71 127.67Q115.71 124.71 117.36 122.83Q119.01 120.94 121.92 120.94L121.92 120.94Q124.85 120.94 126.51 122.82Q128.17 124.70 128.17 127.67L128.17 127.67L128.17 127.92Q128.17 130.90 126.52 132.78Q124.87 134.65 121.95 134.65L121.95 134.65Q119.02 134.65 117.36 132.78Q115.71 130.90 115.71 127.92L115.71 127.92ZM119.26 127.67L119.26 127.92Q119.26 129.73 119.90 130.82Q120.53 131.92 121.95 131.92L121.95 131.92Q123.33 131.92 123.97 130.82Q124.61 129.72 124.61 127.92L124.61 127.92L124.61 127.67Q124.61 125.91 123.96 124.80Q123.32 123.69 121.92 123.69L121.92 123.69Q120.54 123.69 119.90 124.80Q119.26 125.92 119.26 127.67L119.26 127.67ZM132.71 121.19L134.94 129.47L135.17 130.69L135.24 130.69L135.49 129.47L137.66 121.19L141.38 121.19L136.89 134.39L133.48 134.39L128.99 121.19L132.71 121.19ZM148.60 134.65L148.60 134.65Q145.74 134.65 144.03 132.82Q142.32 130.99 142.32 128.17L142.32 128.17L142.32 127.68Q142.32 124.74 143.94 122.83Q145.56 120.93 148.28 120.94L148.28 120.94Q150.95 120.94 152.43 122.55Q153.91 124.16 153.91 126.91L153.91 126.91L153.91 128.85L146.02 128.85L146.00 128.92Q146.09 130.23 146.87 131.07Q147.64 131.92 148.97 131.92L148.97 131.92Q150.16 131.92 150.94 131.68Q151.72 131.44 152.65 130.93L152.65 130.93L153.61 133.12Q152.81 133.78 151.50 134.22Q150.20 134.65 148.60 134.65ZM148.28 123.69L148.28 123.69Q147.29 123.69 146.72 124.44Q146.14 125.20 146.01 126.43L146.01 126.43L146.04 126.50L150.42 126.50L150.42 126.18Q150.42 125.04 149.88 124.37Q149.35 123.69 148.28 123.69ZM163.31 121.09L162.93 124.25L161.62 124.21Q160.83 124.21 160.31 124.54Q159.80 124.87 159.53 125.47L159.53 125.47L159.53 134.39L155.98 134.39L155.98 121.19L159.29 121.19L159.45 123.14Q159.91 122.10 160.65 121.52Q161.39 120.94 162.35 120.94L162.35 120.94Q162.62 120.94 162.85 120.98Q163.07 121.03 163.31 121.09L163.31 121.09Z" fill="#999999"/></svg>